<?xml version="1.0" encoding="iso-8859-1" standalone="no"?> 
<?xml-stylesheet href="AnnotatedWorks-FrankNIELSEN.css" type="text/css"?> 
<svg xmlns="http://www.w3.org/2000/svg" xmlns:xlink="http://www.w3.org/1999/xlink" width="8.19922pt" height="8.19922pt" viewBox="0.0 -8.19922 8.19922 8.19922 "> 
<g transform="translate(0, 0.0 ) scale(1,-1) translate(0,8.19922 )"> 
<g stroke="#f0f" fill="#f0f">
 <g stroke-width="0.4">
 <g stroke="#a6ce39" fill="#a6ce39">
 <path d=" M 8.19922 -4.09961 C 8.19922 -6.364 6.364 -8.19922 4.09961 -8.19922 C 1.8352 -8.19922 0.0 -6.364 0.0 -4.09961 C 0.0 -1.8352 1.8352 0.0 4.09961 0.0 C 6.364 0.0 8.19922 -1.8352 8.19922 -4.09961 Z  " stroke="none"/>
 </g>
 <g stroke="#fff" fill="#fff">
 <path d=" M 2.76402 -5.96364 L 2.2708 -5.96364 L 2.2708 -2.53342 L 2.76402 -2.53342 L 2.76402 -4.08359 L 2.76402 -5.96364 Z M 3.48787 -2.53342 L 4.82024 -2.53342 C 6.08855 -2.53342 6.64584 -3.43982 6.64584 -4.25014 C 6.64584 -5.1309 5.95724 -5.96684 4.82664 -5.96684 L 3.48787 -5.96684 L 3.48787 -2.53342 Z M 3.9811 -5.52165 L 4.7658 -5.52165 C 5.88358 -5.52165 6.1398 -4.67291 6.1398 -4.25014 C 6.1398 -3.56152 5.70102 -2.97862 4.74017 -2.97862 L 3.9811 -2.97862 L 3.9811 -5.52165 Z M 2.8409 -1.8192 C 2.8409 -1.99535 2.69676 -2.14268 2.51741 -2.14268 C 2.33804 -2.14268 2.19392 -1.99535 2.19392 -1.8192 C 2.19392 -1.63983 2.33804 -1.49571 2.51741 -1.49571 C 2.69676 -1.49571 2.8409 -1.64304 2.8409 -1.8192 Z  " stroke="none"/>
 </g>
 </g>
 </g>
   </g> 
</svg> 
