<?xml version="1.0" encoding="UTF-8"?>
<svg xmlns="http://www.w3.org/2000/svg" xmlns:xlink="http://www.w3.org/1999/xlink" width="345pt" height="165pt" viewBox="0 0 345 165" version="1.1">
<g id="surface61374">
<path style=" stroke:none;fill-rule:evenodd;fill:rgb(0%,0%,0%);fill-opacity:1;" d="M 8.179688 5.667969 C 8.179688 1.667969 2.179688 1.667969 2.179688 5.667969 C 2.179688 9.667969 8.179688 9.667969 8.179688 5.667969 Z M 8.179688 5.667969 "/>
<path style=" stroke:none;fill-rule:evenodd;fill:rgb(0%,0%,0%);fill-opacity:1;" d="M 50.875 5.398438 C 50.875 1.398438 44.875 1.398438 44.875 5.398438 C 44.875 9.398438 50.875 9.398438 50.875 5.398438 Z M 50.875 5.398438 "/>
<path style=" stroke:none;fill-rule:evenodd;fill:rgb(0%,0%,0%);fill-opacity:1;" d="M 7.640625 161.585938 C 7.640625 157.585938 1.640625 157.585938 1.640625 161.585938 C 1.640625 165.585938 7.640625 165.585938 7.640625 161.585938 Z M 7.640625 161.585938 "/>
<path style=" stroke:none;fill-rule:evenodd;fill:rgb(0%,0%,0%);fill-opacity:1;" d="M 50.066406 161.042969 C 50.066406 157.042969 44.066406 157.042969 44.066406 161.042969 C 44.066406 165.042969 50.066406 165.042969 50.066406 161.042969 Z M 50.066406 161.042969 "/>
<path style="fill-rule:evenodd;fill:rgb(64.7%,16.5%,16.5%);fill-opacity:1;stroke-width:2;stroke-linecap:butt;stroke-linejoin:round;stroke:rgb(0%,0%,0%);stroke-opacity:1;stroke-miterlimit:10;" d="M 336.414063 404.496094 L 367.882813 435.316406 L 369.109375 403.957031 Z M 336.414063 404.496094 " transform="matrix(1,0,0,-1,-131,565)"/>
<path style=" stroke:none;fill-rule:evenodd;fill:rgb(0%,0%,0%);fill-opacity:1;" d="M 160.316406 161.3125 C 160.316406 157.3125 154.316406 157.3125 154.316406 161.3125 C 154.316406 165.3125 160.316406 165.3125 160.316406 161.3125 Z M 160.316406 161.3125 "/>
<path style=" stroke:none;fill-rule:evenodd;fill:rgb(0%,0%,0%);fill-opacity:1;" d="M 114.917969 161.042969 C 114.917969 157.042969 108.917969 157.042969 108.917969 161.042969 C 108.917969 165.042969 114.917969 165.042969 114.917969 161.042969 Z M 114.917969 161.042969 "/>
<path style=" stroke:none;fill-rule:evenodd;fill:rgb(0%,0%,0%);fill-opacity:1;" d="M 82.492188 130.238281 C 82.492188 126.238281 76.492188 126.238281 76.492188 130.238281 C 76.492188 134.238281 82.492188 134.238281 82.492188 130.238281 Z M 82.492188 130.238281 "/>
<path style=" stroke:none;fill-rule:evenodd;fill:rgb(0%,0%,0%);fill-opacity:1;" d="M 81.953125 38.90625 C 81.953125 34.90625 75.953125 34.90625 75.953125 38.90625 C 75.953125 42.90625 81.953125 42.90625 81.953125 38.90625 Z M 81.953125 38.90625 "/>
<path style=" stroke:none;fill-rule:evenodd;fill:rgb(0%,0%,0%);fill-opacity:1;" d="M 113.835938 5.667969 C 113.835938 1.667969 107.835938 1.667969 107.835938 5.667969 C 107.835938 9.667969 113.835938 9.667969 113.835938 5.667969 Z M 113.835938 5.667969 "/>
<path style=" stroke:none;fill-rule:evenodd;fill:rgb(0%,0%,0%);fill-opacity:1;" d="M 159.773438 5.128906 C 159.773438 1.128906 153.773438 1.128906 153.773438 5.128906 C 153.773438 9.128906 159.773438 9.128906 159.773438 5.128906 Z M 159.773438 5.128906 "/>
<path style=" stroke:none;fill-rule:evenodd;fill:rgb(0%,0%,0%);fill-opacity:1;" d="M 189.5 34.851563 C 189.5 30.851563 183.5 30.851563 183.5 34.851563 C 183.5 38.851563 189.5 38.851563 189.5 34.851563 Z M 189.5 34.851563 "/>
<path style=" stroke:none;fill-rule:evenodd;fill:rgb(0%,0%,0%);fill-opacity:1;" d="M 158.964844 50.792969 C 158.964844 46.792969 152.964844 46.792969 152.964844 50.792969 C 152.964844 54.792969 158.964844 54.792969 158.964844 50.792969 Z M 158.964844 50.792969 "/>
<path style=" stroke:none;fill-rule:evenodd;fill:rgb(0%,0%,0%);fill-opacity:1;" d="M 114.917969 128.078125 C 114.917969 124.078125 108.917969 124.078125 108.917969 128.078125 C 108.917969 132.078125 114.917969 132.078125 114.917969 128.078125 Z M 114.917969 128.078125 "/>
<path style=" stroke:none;fill-rule:evenodd;fill:rgb(0%,0%,0%);fill-opacity:1;" d="M 149.507813 128.886719 C 149.507813 124.886719 143.507813 124.886719 143.507813 128.886719 C 143.507813 132.886719 149.507813 132.886719 149.507813 128.886719 Z M 149.507813 128.886719 "/>
<path style=" stroke:none;fill-rule:evenodd;fill:rgb(0%,0%,0%);fill-opacity:1;" d="M 149.234375 39.984375 C 149.234375 35.984375 143.234375 35.984375 143.234375 39.984375 C 143.234375 43.984375 149.234375 43.984375 149.234375 39.984375 Z M 149.234375 39.984375 "/>
<path style=" stroke:none;fill-rule:evenodd;fill:rgb(0%,0%,0%);fill-opacity:1;" d="M 114.648438 39.175781 C 114.648438 35.175781 108.648438 35.175781 108.648438 39.175781 C 108.648438 43.175781 114.648438 43.175781 114.648438 39.175781 Z M 114.648438 39.175781 "/>
<path style=" stroke:none;fill-rule:evenodd;fill:rgb(0%,0%,0%);fill-opacity:1;" d="M 162.476563 116.1875 C 162.476563 112.1875 156.476563 112.1875 156.476563 116.1875 C 156.476563 120.1875 162.476563 120.1875 162.476563 116.1875 Z M 162.476563 116.1875 "/>
<path style=" stroke:none;fill-rule:evenodd;fill:rgb(0%,0%,0%);fill-opacity:1;" d="M 189.5 131.050781 C 189.5 127.050781 183.5 127.050781 183.5 131.050781 C 183.5 135.050781 189.5 135.050781 189.5 131.050781 Z M 189.5 131.050781 "/>
<path style=" stroke:none;fill-rule:evenodd;fill:rgb(0%,0%,0%);fill-opacity:1;" d="M 208.414063 160.503906 C 208.414063 156.503906 202.414063 156.503906 202.414063 160.503906 C 202.414063 164.503906 208.414063 164.503906 208.414063 160.503906 Z M 208.414063 160.503906 "/>
<path style=" stroke:none;fill-rule:evenodd;fill:rgb(0%,0%,0%);fill-opacity:1;" d="M 208.144531 5.667969 C 208.144531 1.667969 202.144531 1.667969 202.144531 5.667969 C 202.144531 9.667969 208.144531 9.667969 208.144531 5.667969 Z M 208.144531 5.667969 "/>
<path style=" stroke:none;fill-rule:evenodd;fill:rgb(0%,0%,0%);fill-opacity:1;" d="M 239.488281 5.398438 C 239.488281 1.398438 233.488281 1.398438 233.488281 5.398438 C 233.488281 9.398438 239.488281 9.398438 239.488281 5.398438 Z M 239.488281 5.398438 "/>
<path style=" stroke:none;fill-rule:evenodd;fill:rgb(0%,0%,0%);fill-opacity:1;" d="M 241.109375 161.042969 C 241.109375 157.042969 235.109375 157.042969 235.109375 161.042969 C 235.109375 165.042969 241.109375 165.042969 241.109375 161.042969 Z M 241.109375 161.042969 "/>
<path style=" stroke:none;fill-rule:evenodd;fill:rgb(0%,0%,0%);fill-opacity:1;" d="M 276.507813 100.785156 C 276.507813 96.785156 270.507813 96.785156 270.507813 100.785156 C 270.507813 104.785156 276.507813 104.785156 276.507813 100.785156 Z M 276.507813 100.785156 "/>
<path style=" stroke:none;fill-rule:evenodd;fill:rgb(0%,0%,0%);fill-opacity:1;" d="M 277.050781 57.007813 C 277.050781 53.007813 271.050781 53.007813 271.050781 57.007813 C 271.050781 61.007813 277.050781 61.007813 277.050781 57.007813 Z M 277.050781 57.007813 "/>
<path style=" stroke:none;fill-rule:evenodd;fill:rgb(0%,0%,0%);fill-opacity:1;" d="M 314.632813 5.472656 C 314.632813 1.472656 308.632813 1.472656 308.632813 5.472656 C 308.632813 9.472656 314.632813 9.472656 314.632813 5.472656 Z M 314.632813 5.472656 "/>
<path style=" stroke:none;fill-rule:evenodd;fill:rgb(0%,0%,0%);fill-opacity:1;" d="M 344.277344 4.5625 C 344.277344 0.5625 338.277344 0.5625 338.277344 4.5625 C 338.277344 8.5625 344.277344 8.5625 344.277344 4.5625 Z M 344.277344 4.5625 "/>
<path style=" stroke:none;fill-rule:evenodd;fill:rgb(0%,0%,0%);fill-opacity:1;" d="M 345.191406 160.535156 C 345.191406 156.535156 339.191406 156.535156 339.191406 160.535156 C 339.191406 164.535156 345.191406 164.535156 345.191406 160.535156 Z M 345.191406 160.535156 "/>
<path style=" stroke:none;fill-rule:evenodd;fill:rgb(0%,0%,0%);fill-opacity:1;" d="M 312.808594 161.449219 C 312.808594 157.449219 306.808594 157.449219 306.808594 161.449219 C 306.808594 165.449219 312.808594 165.449219 312.808594 161.449219 Z M 312.808594 161.449219 "/>
<path style=" stroke:none;fill-rule:evenodd;fill:rgb(0%,0%,0%);fill-opacity:1;" d="M 314.175781 48.800781 C 314.175781 44.800781 308.175781 44.800781 308.175781 48.800781 C 308.175781 52.800781 314.175781 52.800781 314.175781 48.800781 Z M 314.175781 48.800781 "/>
<path style=" stroke:none;fill-rule:evenodd;fill:rgb(0%,0%,0%);fill-opacity:1;" d="M 240.75 48.34375 C 240.75 44.34375 234.75 44.34375 234.75 48.34375 C 234.75 52.34375 240.75 52.34375 240.75 48.34375 Z M 240.75 48.34375 "/>
<path style="fill-rule:evenodd;fill:rgb(100%,100%,100%);fill-opacity:1;stroke-width:2;stroke-linecap:butt;stroke-linejoin:round;stroke:rgb(0%,0%,0%);stroke-opacity:1;stroke-miterlimit:10;" d="M 135.640625 403.414063 L 136.179688 559.332031 L 178.875 559.601563 L 178.066406 403.957031 Z M 135.640625 403.414063 " transform="matrix(1,0,0,-1,-131,565)"/>
<path style=" stroke:none;fill-rule:evenodd;fill:rgb(0%,0%,0%);fill-opacity:1;" d="M 29.25 133.195313 C 29.25 129.195313 23.25 129.195313 23.25 133.195313 C 23.25 137.195313 29.25 137.195313 29.25 133.195313 Z M 29.25 133.195313 "/>
<path style=" stroke:none;fill-rule:evenodd;fill:rgb(0%,0%,0%);fill-opacity:1;" d="M 28.195313 25.773438 C 28.195313 21.773438 22.195313 21.773438 22.195313 25.773438 C 22.195313 29.773438 28.195313 29.773438 28.195313 25.773438 Z M 28.195313 25.773438 "/>
<path style=" stroke:none;fill-rule:evenodd;fill:rgb(0%,0%,0%);fill-opacity:1;" d="M 239.882813 129.683594 C 239.882813 125.683594 233.882813 125.683594 233.882813 129.683594 C 233.882813 133.683594 239.882813 133.683594 239.882813 129.683594 Z M 239.882813 129.683594 "/>
<path style="fill-rule:evenodd;fill:rgb(100%,0%,0%);fill-opacity:1;stroke-width:2;stroke-linecap:butt;stroke-linejoin:round;stroke:rgb(0%,0%,0%);stroke-opacity:1;stroke-miterlimit:10;" d="M 135.640625 403.414063 L 157.25 431.804688 L 156.195313 539.226563 L 136.179688 559.332031 Z M 135.640625 403.414063 " transform="matrix(1,0,0,-1,-131,565)"/>
<path style="fill-rule:evenodd;fill:rgb(56.5%,93.3%,56.5%);fill-opacity:1;stroke-width:2;stroke-linecap:butt;stroke-linejoin:round;stroke:rgb(0%,0%,0%);stroke-opacity:1;stroke-miterlimit:10;" d="M 136.179688 559.332031 L 178.875 559.601563 L 156.195313 539.226563 Z M 136.179688 559.332031 " transform="matrix(1,0,0,-1,-131,565)"/>
<path style="fill-rule:evenodd;fill:rgb(67.8%,84.7%,90.2%);fill-opacity:1;stroke-width:2;stroke-linecap:butt;stroke-linejoin:round;stroke:rgb(0%,0%,0%);stroke-opacity:1;stroke-miterlimit:10;" d="M 178.066406 403.957031 L 157.25 431.804688 L 156.195313 539.226563 L 178.875 559.601563 Z M 178.066406 403.957031 " transform="matrix(1,0,0,-1,-131,565)"/>
<path style="fill-rule:evenodd;fill:rgb(54.5%,0%,54.5%);fill-opacity:1;stroke-width:2;stroke-linecap:butt;stroke-linejoin:round;stroke:rgb(0%,0%,0%);stroke-opacity:1;stroke-miterlimit:10;" d="M 135.640625 403.414063 L 157.25 431.804688 L 178.066406 403.957031 Z M 135.640625 403.414063 " transform="matrix(1,0,0,-1,-131,565)"/>
<path style=" stroke:none;fill-rule:evenodd;fill:rgb(0%,0%,0%);fill-opacity:1;" d="M 113.855469 74.21875 C 113.855469 70.21875 107.855469 70.21875 107.855469 74.21875 C 107.855469 78.21875 113.855469 78.21875 113.855469 74.21875 Z M 113.855469 74.21875 "/>
<path style=" stroke:none;fill-rule:evenodd;fill:rgb(0%,0%,0%);fill-opacity:1;" d="M 114.554688 101.949219 C 114.554688 97.949219 108.554688 97.949219 108.554688 101.949219 C 108.554688 105.949219 114.554688 105.949219 114.554688 101.949219 Z M 114.554688 101.949219 "/>
<path style="fill-rule:evenodd;fill:rgb(100%,75.3%,79.6%);fill-opacity:1;stroke-width:2;stroke-linecap:butt;stroke-linejoin:round;stroke:rgb(0%,0%,0%);stroke-opacity:1;stroke-miterlimit:10;" d="M 210.492188 434.761719 L 209.953125 526.09375 L 241.855469 490.78125 L 242.554688 463.050781 Z M 210.492188 434.761719 " transform="matrix(1,0,0,-1,-131,565)"/>
<path style="fill-rule:evenodd;fill:rgb(0%,100%,0%);fill-opacity:1;stroke-width:2;stroke-linecap:butt;stroke-linejoin:round;stroke:rgb(0%,0%,0%);stroke-opacity:1;stroke-miterlimit:10;" d="M 242.554688 463.050781 L 210.492188 434.761719 L 242.917969 403.957031 L 277.507813 436.113281 L 242.917969 436.921875 Z M 242.554688 463.050781 " transform="matrix(1,0,0,-1,-131,565)"/>
<path style="fill-rule:evenodd;fill:rgb(100%,0%,0%);fill-opacity:1;stroke-width:2;stroke-linecap:butt;stroke-linejoin:round;stroke:rgb(0%,0%,0%);stroke-opacity:1;stroke-miterlimit:10;" d="M 277.507813 436.113281 L 290.476563 448.8125 L 317.5 433.949219 L 288.316406 403.6875 Z M 277.507813 436.113281 " transform="matrix(1,0,0,-1,-131,565)"/>
<path style="fill-rule:evenodd;fill:rgb(100%,84.3%,0%);fill-opacity:1;stroke-width:2;stroke-linecap:butt;stroke-linejoin:round;stroke:rgb(0%,0%,0%);stroke-opacity:1;stroke-miterlimit:10;" d="M 288.316406 403.6875 L 242.917969 403.957031 L 277.507813 436.113281 Z M 288.316406 403.6875 " transform="matrix(1,0,0,-1,-131,565)"/>
<path style="fill-rule:evenodd;fill:rgb(64.7%,16.5%,16.5%);fill-opacity:1;stroke-width:2;stroke-linecap:butt;stroke-linejoin:round;stroke:rgb(0%,0%,0%);stroke-opacity:1;stroke-miterlimit:10;" d="M 241.855469 490.78125 L 209.953125 526.09375 L 241.835938 559.332031 L 277.234375 525.015625 L 242.648438 525.824219 Z M 241.855469 490.78125 " transform="matrix(1,0,0,-1,-131,565)"/>
<path style="fill-rule:evenodd;fill:rgb(0%,0%,50.2%);fill-opacity:1;stroke-width:2;stroke-linecap:butt;stroke-linejoin:round;stroke:rgb(0%,0%,0%);stroke-opacity:1;stroke-miterlimit:10;" d="M 286.964844 514.207031 L 277.234375 525.015625 L 241.835938 559.332031 L 287.773438 559.871094 L 317.5 530.148438 Z M 286.964844 514.207031 " transform="matrix(1,0,0,-1,-131,565)"/>
<path style="fill-rule:evenodd;fill:rgb(100%,54.9%,0%);fill-opacity:1;stroke-width:2;stroke-linecap:butt;stroke-linejoin:round;stroke:rgb(0%,0%,0%);stroke-opacity:1;stroke-miterlimit:10;" d="M 336.414063 404.496094 L 336.144531 559.332031 L 368.75 516.65625 L 367.882813 435.316406 Z M 336.414063 404.496094 " transform="matrix(1,0,0,-1,-131,565)"/>
<path style="fill-rule:evenodd;fill:rgb(100%,75.3%,79.6%);fill-opacity:1;stroke-width:2;stroke-linecap:butt;stroke-linejoin:round;stroke:rgb(0%,0%,0%);stroke-opacity:1;stroke-miterlimit:10;" d="M 368.75 516.65625 L 367.488281 559.601563 L 336.144531 559.332031 Z M 368.75 516.65625 " transform="matrix(1,0,0,-1,-131,565)"/>
<path style="fill-rule:evenodd;fill:rgb(67.8%,84.7%,90.2%);fill-opacity:1;stroke-width:2;stroke-linecap:butt;stroke-linejoin:round;stroke:rgb(0%,0%,0%);stroke-opacity:1;stroke-miterlimit:10;" d="M 367.488281 559.601563 L 405.050781 507.992188 L 404.507813 464.214844 L 368.75 516.65625 Z M 367.488281 559.601563 " transform="matrix(1,0,0,-1,-131,565)"/>
<path style="fill-rule:evenodd;fill:rgb(100%,0%,0%);fill-opacity:1;stroke-width:2;stroke-linecap:butt;stroke-linejoin:round;stroke:rgb(0%,0%,0%);stroke-opacity:1;stroke-miterlimit:10;" d="M 405.050781 507.992188 L 442.632813 559.527344 L 442.175781 516.199219 L 404.507813 464.214844 Z M 405.050781 507.992188 " transform="matrix(1,0,0,-1,-131,565)"/>
<path style="fill-rule:evenodd;fill:rgb(100%,100%,87.8%);fill-opacity:1;stroke-width:2;stroke-linecap:butt;stroke-linejoin:round;stroke:rgb(0%,0%,0%);stroke-opacity:1;stroke-miterlimit:10;" d="M 442.632813 559.527344 L 472.277344 560.4375 L 442.175781 516.199219 Z M 442.632813 559.527344 " transform="matrix(1,0,0,-1,-131,565)"/>
<path style="fill-rule:evenodd;fill:rgb(18%,54.5%,34.1%);fill-opacity:1;stroke-width:2;stroke-linecap:butt;stroke-linejoin:round;stroke:rgb(0%,0%,0%);stroke-opacity:1;stroke-miterlimit:10;" d="M 442.175781 516.199219 L 440.808594 403.550781 L 473.191406 404.464844 L 472.277344 560.4375 Z M 442.175781 516.199219 " transform="matrix(1,0,0,-1,-131,565)"/>
<path style=" stroke:none;fill-rule:evenodd;fill:rgb(0%,0%,0%);fill-opacity:1;" d="M 28.195313 25.773438 C 28.195313 21.773438 22.195313 21.773438 22.195313 25.773438 C 22.195313 29.773438 28.195313 29.773438 28.195313 25.773438 Z M 28.195313 25.773438 "/>
<path style=" stroke:none;fill-rule:evenodd;fill:rgb(0%,0%,0%);fill-opacity:1;" d="M 29.25 133.195313 C 29.25 129.195313 23.25 129.195313 23.25 133.195313 C 23.25 137.195313 29.25 137.195313 29.25 133.195313 Z M 29.25 133.195313 "/>
<path style=" stroke:none;fill-rule:evenodd;fill:rgb(0%,0%,0%);fill-opacity:1;" d="M 114.648438 39.175781 C 114.648438 35.175781 108.648438 35.175781 108.648438 39.175781 C 108.648438 43.175781 114.648438 43.175781 114.648438 39.175781 Z M 114.648438 39.175781 "/>
<path style=" stroke:none;fill-rule:evenodd;fill:rgb(0%,0%,0%);fill-opacity:1;" d="M 149.234375 39.984375 C 149.234375 35.984375 143.234375 35.984375 143.234375 39.984375 C 143.234375 43.984375 149.234375 43.984375 149.234375 39.984375 Z M 149.234375 39.984375 "/>
<path style=" stroke:none;fill-rule:evenodd;fill:rgb(0%,0%,0%);fill-opacity:1;" d="M 113.855469 74.21875 C 113.855469 70.21875 107.855469 70.21875 107.855469 74.21875 C 107.855469 78.21875 113.855469 78.21875 113.855469 74.21875 Z M 113.855469 74.21875 "/>
<path style=" stroke:none;fill-rule:evenodd;fill:rgb(0%,0%,0%);fill-opacity:1;" d="M 114.554688 101.949219 C 114.554688 97.949219 108.554688 97.949219 108.554688 101.949219 C 108.554688 105.949219 114.554688 105.949219 114.554688 101.949219 Z M 114.554688 101.949219 "/>
<path style=" stroke:none;fill-rule:evenodd;fill:rgb(0%,0%,0%);fill-opacity:1;" d="M 114.917969 128.078125 C 114.917969 124.078125 108.917969 124.078125 108.917969 128.078125 C 108.917969 132.078125 114.917969 132.078125 114.917969 128.078125 Z M 114.917969 128.078125 "/>
<path style=" stroke:none;fill-rule:evenodd;fill:rgb(0%,0%,0%);fill-opacity:1;" d="M 149.507813 128.886719 C 149.507813 124.886719 143.507813 124.886719 143.507813 128.886719 C 143.507813 132.886719 149.507813 132.886719 149.507813 128.886719 Z M 149.507813 128.886719 "/>
<path style=" stroke:none;fill-rule:evenodd;fill:rgb(0%,0%,0%);fill-opacity:1;" d="M 162.476563 116.1875 C 162.476563 112.1875 156.476563 112.1875 156.476563 116.1875 C 156.476563 120.1875 162.476563 120.1875 162.476563 116.1875 Z M 162.476563 116.1875 "/>
<path style=" stroke:none;fill-rule:evenodd;fill:rgb(0%,0%,0%);fill-opacity:1;" d="M 189.5 131.050781 C 189.5 127.050781 183.5 127.050781 183.5 131.050781 C 183.5 135.050781 189.5 135.050781 189.5 131.050781 Z M 189.5 131.050781 "/>
<path style=" stroke:none;fill-rule:evenodd;fill:rgb(0%,0%,0%);fill-opacity:1;" d="M 160.316406 161.3125 C 160.316406 157.3125 154.316406 157.3125 154.316406 161.3125 C 154.316406 165.3125 160.316406 165.3125 160.316406 161.3125 Z M 160.316406 161.3125 "/>
<path style=" stroke:none;fill-rule:evenodd;fill:rgb(0%,0%,0%);fill-opacity:1;" d="M 114.917969 161.042969 C 114.917969 157.042969 108.917969 157.042969 108.917969 161.042969 C 108.917969 165.042969 114.917969 165.042969 114.917969 161.042969 Z M 114.917969 161.042969 "/>
<path style=" stroke:none;fill-rule:evenodd;fill:rgb(0%,0%,0%);fill-opacity:1;" d="M 82.492188 130.238281 C 82.492188 126.238281 76.492188 126.238281 76.492188 130.238281 C 76.492188 134.238281 82.492188 134.238281 82.492188 130.238281 Z M 82.492188 130.238281 "/>
<path style=" stroke:none;fill-rule:evenodd;fill:rgb(0%,0%,0%);fill-opacity:1;" d="M 81.953125 38.90625 C 81.953125 34.90625 75.953125 34.90625 75.953125 38.90625 C 75.953125 42.90625 81.953125 42.90625 81.953125 38.90625 Z M 81.953125 38.90625 "/>
<path style=" stroke:none;fill-rule:evenodd;fill:rgb(0%,0%,0%);fill-opacity:1;" d="M 113.835938 5.667969 C 113.835938 1.667969 107.835938 1.667969 107.835938 5.667969 C 107.835938 9.667969 113.835938 9.667969 113.835938 5.667969 Z M 113.835938 5.667969 "/>
<path style=" stroke:none;fill-rule:evenodd;fill:rgb(0%,0%,0%);fill-opacity:1;" d="M 159.773438 5.128906 C 159.773438 1.128906 153.773438 1.128906 153.773438 5.128906 C 153.773438 9.128906 159.773438 9.128906 159.773438 5.128906 Z M 159.773438 5.128906 "/>
<path style=" stroke:none;fill-rule:evenodd;fill:rgb(0%,0%,0%);fill-opacity:1;" d="M 189.5 34.851563 C 189.5 30.851563 183.5 30.851563 183.5 34.851563 C 183.5 38.851563 189.5 38.851563 189.5 34.851563 Z M 189.5 34.851563 "/>
<path style=" stroke:none;fill-rule:evenodd;fill:rgb(0%,0%,0%);fill-opacity:1;" d="M 208.414063 160.503906 C 208.414063 156.503906 202.414063 156.503906 202.414063 160.503906 C 202.414063 164.503906 208.414063 164.503906 208.414063 160.503906 Z M 208.414063 160.503906 "/>
<path style=" stroke:none;fill-rule:evenodd;fill:rgb(0%,0%,0%);fill-opacity:1;" d="M 239.882813 129.683594 C 239.882813 125.683594 233.882813 125.683594 233.882813 129.683594 C 233.882813 133.683594 239.882813 133.683594 239.882813 129.683594 Z M 239.882813 129.683594 "/>
<path style=" stroke:none;fill-rule:evenodd;fill:rgb(0%,0%,0%);fill-opacity:1;" d="M 241.109375 161.042969 C 241.109375 157.042969 235.109375 157.042969 235.109375 161.042969 C 235.109375 165.042969 241.109375 165.042969 241.109375 161.042969 Z M 241.109375 161.042969 "/>
<path style=" stroke:none;fill-rule:evenodd;fill:rgb(0%,0%,0%);fill-opacity:1;" d="M 208.144531 5.667969 C 208.144531 1.667969 202.144531 1.667969 202.144531 5.667969 C 202.144531 9.667969 208.144531 9.667969 208.144531 5.667969 Z M 208.144531 5.667969 "/>
<path style=" stroke:none;fill-rule:evenodd;fill:rgb(0%,0%,0%);fill-opacity:1;" d="M 239.488281 5.398438 C 239.488281 1.398438 233.488281 1.398438 233.488281 5.398438 C 233.488281 9.398438 239.488281 9.398438 239.488281 5.398438 Z M 239.488281 5.398438 "/>
<path style=" stroke:none;fill-rule:evenodd;fill:rgb(0%,0%,0%);fill-opacity:1;" d="M 240.75 48.34375 C 240.75 44.34375 234.75 44.34375 234.75 48.34375 C 234.75 52.34375 240.75 52.34375 240.75 48.34375 Z M 240.75 48.34375 "/>
<path style=" stroke:none;fill-rule:evenodd;fill:rgb(0%,0%,0%);fill-opacity:1;" d="M 276.507813 100.785156 C 276.507813 96.785156 270.507813 96.785156 270.507813 100.785156 C 270.507813 104.785156 276.507813 104.785156 276.507813 100.785156 Z M 276.507813 100.785156 "/>
<path style=" stroke:none;fill-rule:evenodd;fill:rgb(0%,0%,0%);fill-opacity:1;" d="M 277.050781 57.007813 C 277.050781 53.007813 271.050781 53.007813 271.050781 57.007813 C 271.050781 61.007813 277.050781 61.007813 277.050781 57.007813 Z M 277.050781 57.007813 "/>
<path style=" stroke:none;fill-rule:evenodd;fill:rgb(0%,0%,0%);fill-opacity:1;" d="M 314.632813 5.472656 C 314.632813 1.472656 308.632813 1.472656 308.632813 5.472656 C 308.632813 9.472656 314.632813 9.472656 314.632813 5.472656 Z M 314.632813 5.472656 "/>
<path style=" stroke:none;fill-rule:evenodd;fill:rgb(0%,0%,0%);fill-opacity:1;" d="M 314.175781 48.800781 C 314.175781 44.800781 308.175781 44.800781 308.175781 48.800781 C 308.175781 52.800781 314.175781 52.800781 314.175781 48.800781 Z M 314.175781 48.800781 "/>
<path style=" stroke:none;fill-rule:evenodd;fill:rgb(0%,0%,0%);fill-opacity:1;" d="M 344.277344 4.5625 C 344.277344 0.5625 338.277344 0.5625 338.277344 4.5625 C 338.277344 8.5625 344.277344 8.5625 344.277344 4.5625 Z M 344.277344 4.5625 "/>
<path style=" stroke:none;fill-rule:evenodd;fill:rgb(0%,0%,0%);fill-opacity:1;" d="M 345.191406 160.535156 C 345.191406 156.535156 339.191406 156.535156 339.191406 160.535156 C 339.191406 164.535156 345.191406 164.535156 345.191406 160.535156 Z M 345.191406 160.535156 "/>
<path style=" stroke:none;fill-rule:evenodd;fill:rgb(0%,0%,0%);fill-opacity:1;" d="M 312.808594 161.449219 C 312.808594 157.449219 306.808594 157.449219 306.808594 161.449219 C 306.808594 165.449219 312.808594 165.449219 312.808594 161.449219 Z M 312.808594 161.449219 "/>
</g>
</svg>
